<svg xmlns="http://www.w3.org/2000/svg" id="Capa_1" x="0" y="0" version="1.1" viewBox="0 0 274.934 274.934" xml:space="preserve">
  <defs/>
  <path d="M109.906 204.389c-4.143 0-7.5 3.358-7.5 7.5v21.325c0 4.142 3.357 7.5 7.5 7.5 4.142 0 7.5-3.358 7.5-7.5v-21.325c0-4.142-3.357-7.5-7.5-7.5zM109.906 57.258c4.142 0 7.5-3.358 7.5-7.5V28.433c0-4.142-3.358-7.5-7.5-7.5-4.143 0-7.5 3.358-7.5 7.5v21.325c0 4.142 3.358 7.5 7.5 7.5zM47.275 78.801c1.465 1.464 3.384 2.196 5.303 2.196 1.92 0 3.84-.732 5.305-2.198 2.928-2.93 2.927-7.678-.002-10.606L42.799 53.116c-2.932-2.929-7.68-2.928-10.607.002-2.928 2.93-2.927 7.678.002 10.606l15.081 15.077zM183.463 130.825c0 4.142 3.357 7.5 7.5 7.5h21.324c4.143 0 7.5-3.358 7.5-7.5 0-4.142-3.357-7.5-7.5-7.5h-21.324c-4.143 0-7.5 3.358-7.5 7.5zM36.334 130.825c0-4.142-3.357-7.5-7.5-7.5H7.5c-4.143 0-7.5 3.358-7.5 7.5 0 4.142 3.357 7.5 7.5 7.5h21.334c4.143 0 7.5-3.358 7.5-7.5zM167.217 80.997c1.919 0 3.839-.732 5.304-2.197l15.076-15.076c2.929-2.929 2.929-7.678 0-10.606-2.93-2.929-7.678-2.929-10.607 0l-15.076 15.076c-2.929 2.929-2.929 7.678 0 10.606 1.464 1.464 3.384 2.197 5.303 2.197zM47.267 182.84l-15.074 15.076c-2.929 2.929-2.929 7.678.001 10.606 1.464 1.464 3.384 2.196 5.303 2.196s3.839-.732 5.304-2.197l15.074-15.076c2.929-2.929 2.929-7.678-.001-10.606-2.929-2.928-7.678-2.928-10.607.001zM168.27 130.825c0-32.189-26.186-58.377-58.373-58.377-32.189 0-58.377 26.188-58.377 58.377 0 32.188 26.188 58.375 58.377 58.375 32.187 0 58.373-26.187 58.373-58.375zm-101.75 0c0-23.918 19.459-43.377 43.377-43.377 23.916 0 43.373 19.459 43.373 43.377 0 23.917-19.457 43.375-43.373 43.375-23.918 0-43.377-19.458-43.377-43.375zM239.591 184.247c-6.395-12.787-19.896-21.297-34.702-21.297-20.344 0-37.064 15.526-38.517 35.144-13.319 2.421-23.439 13.93-23.439 27.72 0 15.542 12.856 28.188 28.66 28.188h67.838c19.576 0 35.502-15.646 35.502-34.877.001-19.18-15.839-34.792-35.342-34.878zm-.159 54.754h-67.838c-7.532 0-13.66-5.916-13.66-13.188s6.128-13.189 13.66-13.189c.441 0 .964.037 1.644.115 2.308.265 4.617-.553 6.24-2.223 1.623-1.669 2.378-3.998 2.045-6.302-.168-1.158-.253-2.283-.253-3.344 0-12.639 10.596-22.921 23.619-22.921 10.378 0 19.686 6.738 22.639 16.386 1.103 3.603 4.71 5.83 8.422 5.2 1.137-.192 2.309-.29 3.482-.29 11.305 0 20.502 8.917 20.502 19.877 0 10.961-9.198 19.879-20.502 19.879z"/>
</svg>