<svg xmlns="http://www.w3.org/2000/svg" id="Capa_1" x="0" y="0" version="1.1" viewBox="0 0 227.73 227.73" xml:space="preserve">
  <defs/>
  <circle cx="183.082" cy="187.694" r="10.499"/>
  <circle cx="137.27" cy="187.694" r="10.499"/>
  <circle cx="91.139" cy="187.694" r="10.499"/>
  <circle cx="45.328" cy="187.694" r="10.499"/>
  <circle cx="160.27" cy="216.486" r="10.498"/>
  <circle cx="114.139" cy="216.486" r="10.498"/>
  <circle cx="68.328" cy="216.486" r="10.498"/>
  <path d="M169.316 39.469c-1.193 0-2.388.036-3.582.108-9.796-23.143-33.3-38.831-59.221-38.831-35.335 0-64.082 28.178-64.082 62.813 0 .121 0 .243.001.365C18.732 65.706 0 85.2 0 108.906c0 24.876 20.625 45.113 45.977 45.113h123.34c32.209 0 58.414-25.694 58.414-57.275s-26.205-57.275-58.415-57.275zm0 99.551H45.977C28.896 139.02 15 125.511 15 108.906s13.896-30.115 30.977-30.115c1.054 0 2.226.08 3.687.25 2.317.272 4.624-.551 6.248-2.222 1.625-1.671 2.379-4.003 2.043-6.31-.347-2.379-.523-4.718-.523-6.951 0-26.364 22.018-47.813 49.082-47.813 21.54 0 40.879 14.036 47.027 34.132 1.102 3.6 4.703 5.83 8.412 5.202 2.42-.406 4.897-.611 7.363-.611 23.938 0 43.414 18.965 43.414 42.275 0 23.312-19.475 42.277-43.414 42.277z"/>
</svg>