<svg xmlns="http://www.w3.org/2000/svg" id="Capa_1" x="0" y="0" fill="#fff" version="1.1" viewBox="0 0 168.29 168.29" xml:space="preserve">
  <defs/>
  <path d="M159.81 127.909c-1.025-2.473-3.289-4.212-5.942-4.565-24.423-3.241-45.44-19.364-54.848-42.078-9.409-22.715-5.95-48.978 9.028-68.539 1.628-2.125 1.999-4.957.975-7.43s-3.289-4.212-5.942-4.565C99.416.247 95.69 0 92.005 0 80.957 0 70.152 2.155 59.889 6.406c-20.764 8.601-36.935 24.772-45.533 45.536-8.597 20.761-8.595 43.628.004 64.39 13.074 31.563 43.595 51.957 77.756 51.957h.001c11.051 0 21.872-2.161 32.164-6.424 13.644-5.652 25.592-14.825 34.553-26.528 1.628-2.124 2-4.955.976-7.428zm-41.269 20.099c-8.463 3.505-17.353 5.283-26.424 5.282-28.073 0-53.155-16.76-63.899-42.698-7.067-17.061-7.068-35.852-.004-52.911C35.28 40.62 48.567 27.332 65.629 20.265c7.424-3.075 15.189-4.816 23.126-5.188-11.761 22.021-13.291 48.521-3.595 71.93 9.694 23.405 29.509 41.059 53.392 48.315-5.865 5.325-12.636 9.631-20.011 12.686z"/>
</svg>