<svg xmlns="http://www.w3.org/2000/svg" id="Capa_1" x="0" y="0" fill="#fff" version="1.1" viewBox="0 0 249.002 249.002" xml:space="preserve">
  <defs/>
  <path d="M185.496 83.545c-1.475 0-2.952.051-4.425.151-4.725-11.404-12.63-21.543-22.705-28.993-12.166-8.997-26.673-13.752-41.952-13.752-38.455 0-69.74 30.658-69.74 68.343 0 .365.003.732.01 1.101C20.669 111.989 0 133.26 0 159.176c0 26.95 22.35 48.875 49.822 48.875h135.674c35.017 0 63.506-27.927 63.506-62.253 0-34.327-28.489-62.253-63.506-62.253zm0 109.506H49.822C30.621 193.051 15 177.855 15 159.176c0-18.68 15.621-33.878 34.822-33.878 1.183 0 2.5.089 4.147.281 2.313.271 4.624-.553 6.247-2.225 1.624-1.672 2.378-4.003 2.041-6.309-.387-2.65-.583-5.258-.583-7.752 0-29.413 24.556-53.343 54.74-53.343 24.021 0 45.589 15.657 52.449 38.076 1.102 3.6 4.696 5.832 8.415 5.201 2.696-.453 5.461-.683 8.217-.683 26.746 0 48.506 21.198 48.506 47.254.001 26.056-21.759 47.253-48.505 47.253z"/>
</svg>