<svg xmlns="http://www.w3.org/2000/svg" id="Capa_1" x="0" y="0" fill="#fff" version="1.1" viewBox="0 0 305.367 305.367" xml:space="preserve">
  <defs/>
  <path d="M304.796 182.155c-1.024-2.473-3.289-4.212-5.942-4.565-24.423-3.241-45.439-19.364-54.848-42.078-9.409-22.715-5.95-48.978 9.028-68.539 1.627-2.125 1.999-4.957.975-7.43s-3.289-4.212-5.942-4.564c-14.611-1.941-29.547.022-43.191 5.673-25.806 10.689-43.98 32.924-49.881 59.047-11.954-13.502-29.57-21.858-48.481-21.858-35.335 0-64.082 28.178-64.082 62.813 0 .122 0 .243.001.365C18.732 162.802 0 182.296 0 206.002c0 24.876 20.625 45.113 45.977 45.113h123.34c22.222 0 41.581-12.232 51.453-30.188 5.441 1.087 10.919 1.637 16.385 1.637 10.904 0 21.752-2.16 32.114-6.452 13.644-5.652 25.592-14.825 34.553-26.528 1.627-2.124 1.999-4.956.974-7.429zm-135.48 53.96H45.977C28.896 236.115 15 222.606 15 206.002c0-16.605 13.896-30.115 30.977-30.115 1.054 0 2.226.079 3.686.25 2.317.274 4.624-.55 6.249-2.222 1.624-1.671 2.379-4.003 2.043-6.31-.347-2.379-.523-4.718-.523-6.951 0-26.364 22.018-47.813 49.082-47.813 21.467 0 40.743 13.942 46.96 33.929.08.281.177.554.288.82 1.305 3.233 4.699 5.177 8.191 4.585 2.42-.406 4.897-.611 7.363-.611 23.939 0 43.414 18.965 43.414 42.275 0 23.311-19.475 42.276-43.414 42.276zm94.212-33.861c-11.973 4.959-24.725 6.442-37.293 4.414.967-4.127 1.496-8.417 1.496-12.828 0-31.582-26.205-57.275-58.414-57.275-.456 0-.912.031-1.368.041.65-27.137 17.104-51.506 42.668-62.094 7.374-3.055 15.208-4.797 23.121-5.179-11.756 22.019-13.285 48.514-3.589 71.92 9.694 23.403 29.512 41.058 53.392 48.315-5.867 5.325-12.638 9.631-20.013 12.686z"/>
</svg>