<svg xmlns="http://www.w3.org/2000/svg" id="Capa_1" x="0" y="0" fill="#fff" version="1.1" viewBox="0 0 233.591 233.591" xml:space="preserve">
  <defs/>
  <path d="M172.247 38.723c-1.193 0-2.388.036-3.582.108C158.869 15.688 135.365 0 109.444 0 74.109 0 45.362 28.178 45.362 62.813c0 .122 0 .243.001.365C21.662 64.96 2.93 84.454 2.93 108.16c0 24.875 20.625 45.113 45.976 45.113h123.34c32.209 0 58.414-25.694 58.414-57.275.001-31.582-26.204-57.275-58.413-57.275zm0 99.55H48.907c-17.08 0-30.976-13.509-30.976-30.113 0-16.605 13.896-30.115 30.976-30.115 1.054 0 2.226.08 3.687.25 2.315.274 4.624-.55 6.249-2.222 1.625-1.671 2.379-4.003 2.043-6.31-.347-2.379-.523-4.718-.523-6.951C60.362 36.449 82.38 15 109.444 15c21.54 0 40.878 14.036 47.027 34.132 1.102 3.599 4.7 5.828 8.412 5.202 2.42-.406 4.897-.611 7.363-.611 23.938 0 43.414 18.965 43.414 42.275.001 23.311-19.475 42.275-43.413 42.275zM39.601 196.751l21.486-21.486c2.929-2.929 2.929-7.678 0-10.606-2.929-2.929-7.678-2.929-10.606 0l-21.486 21.486c-2.929 2.929-2.929 7.678 0 10.607 1.464 1.464 3.384 2.197 5.303 2.197 1.919-.002 3.838-.734 5.303-2.198zM85.439 196.751l21.484-21.486c2.929-2.929 2.928-7.678-.001-10.607-2.93-2.929-7.678-2.928-10.607.001l-21.484 21.486c-2.929 2.929-2.928 7.678 0 10.607 1.465 1.464 3.384 2.196 5.303 2.196 1.921-.001 3.841-.733 5.305-2.197zM131.275 196.751l21.484-21.486c2.929-2.929 2.928-7.678 0-10.607-2.93-2.929-7.678-2.928-10.607.001l-21.484 21.486c-2.929 2.929-2.928 7.678 0 10.607 1.465 1.464 3.384 2.196 5.303 2.196 1.92-.001 3.84-.733 5.304-2.197zM187.99 164.658l-21.486 21.486c-2.929 2.929-2.929 7.678 0 10.607 1.464 1.464 3.384 2.197 5.303 2.197s3.839-.732 5.303-2.197l21.486-21.486c2.929-2.929 2.929-7.678 0-10.606-2.928-2.93-7.677-2.93-10.606-.001zM53.628 199.301l-21.484 21.486c-2.929 2.929-2.928 7.678 0 10.607 1.465 1.464 3.384 2.196 5.303 2.196 1.92 0 3.839-.732 5.304-2.197l21.484-21.486c2.929-2.929 2.928-7.678-.001-10.607-2.928-2.928-7.677-2.928-10.606.001zM99.599 199.301l-21.484 21.486c-2.929 2.929-2.928 7.678.001 10.607 1.465 1.464 3.384 2.196 5.303 2.196s3.839-.732 5.304-2.197l21.484-21.486c2.929-2.929 2.928-7.678 0-10.607-2.931-2.928-7.679-2.928-10.608.001zM145.57 199.301l-21.484 21.486c-2.929 2.929-2.928 7.678 0 10.607 1.465 1.464 3.384 2.196 5.303 2.196s3.839-.732 5.304-2.197l21.484-21.486c2.929-2.929 2.928-7.678-.001-10.607-2.929-2.928-7.677-2.928-10.606.001z"/>
</svg>