<svg xmlns="http://www.w3.org/2000/svg" id="Capa_1" x="0" y="0" fill="#fff" version="1.1" viewBox="0 0 252.414 252.414" xml:space="preserve">
  <defs/>
  <path d="M181.658 38.723c-1.193 0-2.388.036-3.582.108C168.28 15.688 144.777 0 118.855 0 83.521 0 54.773 28.178 54.773 62.813c0 .122 0 .243.001.365-23.7 1.782-42.432 21.276-42.432 44.982 0 24.875 20.625 45.113 45.977 45.113h123.34c32.209 0 58.414-25.694 58.414-57.275-.001-31.581-26.205-57.275-58.415-57.275zm0 99.55H58.318c-17.081 0-30.976-13.509-30.976-30.113 0-16.605 13.896-30.115 30.976-30.115 1.054 0 2.226.08 3.687.25 2.315.272 4.624-.551 6.249-2.222 1.624-1.671 2.379-4.003 2.043-6.31-.347-2.379-.523-4.718-.523-6.951C69.773 36.449 91.792 15 118.855 15c21.54 0 40.879 14.036 47.027 34.132 1.102 3.599 4.7 5.831 8.412 5.202 2.42-.406 4.897-.611 7.363-.611 23.938 0 43.414 18.965 43.414 42.275.001 23.311-19.474 42.275-43.413 42.275zM122.473 221.156c-1.381-2.391-4.436-3.21-6.83-1.83l-6.218 3.59v-7.178c0-2.761-2.239-5-5-5s-5 2.239-5 5v7.177l-6.217-3.589c-2.392-1.381-5.45-.561-6.83 1.83-1.381 2.392-.562 5.45 1.83 6.83l6.217 3.589-6.217 3.589c-2.392 1.38-3.211 4.439-1.83 6.83.926 1.604 2.606 2.501 4.335 2.501.848 0 1.708-.216 2.495-.671l6.217-3.589v7.178c0 2.761 2.239 5 5 5s5-2.239 5-5v-7.179l6.218 3.59c.788.455 1.647.671 2.495.671 1.728 0 3.409-.897 4.335-2.501 1.381-2.392.562-5.45-1.83-6.83l-6.217-3.589 6.217-3.589c2.391-1.38 3.211-4.438 1.83-6.83zM166.809 221.156c-1.38-2.391-4.437-3.21-6.83-1.83l-6.218 3.59v-7.178c0-2.761-2.239-5-5-5s-5 2.239-5 5v7.177l-6.217-3.589c-2.393-1.381-5.45-.561-6.83 1.83-1.381 2.392-.561 5.45 1.83 6.83l6.217 3.589-6.217 3.589c-2.392 1.38-3.211 4.439-1.83 6.83.926 1.604 2.607 2.501 4.335 2.501.848 0 1.707-.216 2.495-.671l6.217-3.589v7.178c0 2.761 2.239 5 5 5s5-2.239 5-5v-7.179l6.218 3.59c.788.455 1.647.671 2.495.671 1.728 0 3.409-.897 4.335-2.501 1.381-2.392.562-5.45-1.83-6.83l-6.217-3.589 6.217-3.589c2.392-1.38 3.211-4.438 1.83-6.83zM87.256 196.219v-7.179l6.218 3.59c.788.454 1.647.671 2.495.671 1.728 0 3.409-.897 4.335-2.501 1.381-2.392.562-5.449-1.83-6.83l-6.217-3.589 6.217-3.589c2.392-1.381 3.211-4.438 1.83-6.83-1.38-2.391-4.438-3.211-6.83-1.83l-6.218 3.59v-7.178c0-2.761-2.239-5-5-5s-5 2.239-5 5v7.177l-6.216-3.589c-2.392-1.38-5.45-.561-6.83 1.83-1.381 2.392-.561 5.449 1.83 6.83l6.217 3.589-6.217 3.589c-2.392 1.381-3.211 4.439-1.83 6.83.926 1.604 2.606 2.501 4.335 2.501.848 0 1.708-.216 2.495-.671l6.216-3.589v7.178c0 2.761 2.239 5 5 5s5-2.239 5-5zM131.594 196.219v-7.178l6.217 3.589c.788.454 1.647.671 2.495.671 1.728 0 3.409-.897 4.335-2.501 1.381-2.392.562-5.449-1.83-6.83l-6.217-3.589 6.217-3.589c2.392-1.381 3.211-4.438 1.83-6.83-1.381-2.391-4.438-3.211-6.83-1.83l-6.217 3.589v-7.177c0-2.761-2.239-5-5-5s-5 2.239-5 5v7.177l-6.217-3.589c-2.393-1.38-5.449-.561-6.83 1.83-1.381 2.392-.562 5.449 1.83 6.83l6.217 3.589-6.217 3.589c-2.392 1.381-3.211 4.439-1.83 6.83.926 1.604 2.606 2.501 4.335 2.501.848 0 1.708-.216 2.495-.671l6.217-3.589v7.178c0 2.761 2.239 5 5 5s5-2.239 5-5zM188.977 169.961c-1.38-2.391-4.437-3.211-6.83-1.83l-6.218 3.59v-7.178c0-2.761-2.239-5-5-5s-5 2.239-5 5v7.176l-6.215-3.588c-2.393-1.38-5.449-.561-6.83 1.83-1.381 2.392-.562 5.449 1.83 6.83l6.217 3.589-6.217 3.589c-2.392 1.381-3.211 4.439-1.83 6.83.926 1.604 2.606 2.501 4.335 2.501.848 0 1.708-.216 2.495-.671l6.215-3.588v7.177c0 2.761 2.239 5 5 5s5-2.239 5-5v-7.179l6.218 3.59c.788.454 1.647.671 2.495.671 1.728 0 3.409-.897 4.335-2.501 1.381-2.392.562-5.449-1.83-6.83l-6.217-3.589 6.217-3.589c2.392-1.381 3.211-4.438 1.83-6.83z"/>
</svg>